<?xml version="1.0" encoding="UTF-8" standalone="no"?>
<!-- Created with Inkscape (http://www.inkscape.org/) -->

<svg
   width="173.78879mm"
   height="26.198219mm"
   viewBox="0 0 173.78879 26.198219"
   version="1.1"
   id="svg5"
   xml:space="preserve"
   inkscape:version="1.2.2 (b0a84865, 2022-12-01)"
   sodipodi:docname="scanning_logos.svg"
   xmlns:inkscape="http://www.inkscape.org/namespaces/inkscape"
   xmlns:sodipodi="http://sodipodi.sourceforge.net/DTD/sodipodi-0.dtd"
   xmlns:xlink="http://www.w3.org/1999/xlink"
   xmlns="http://www.w3.org/2000/svg"
   xmlns:svg="http://www.w3.org/2000/svg"><sodipodi:namedview
     id="namedview7"
     pagecolor="#ffffff"
     bordercolor="#999999"
     borderopacity="1"
     inkscape:showpageshadow="0"
     inkscape:pageopacity="0"
     inkscape:pagecheckerboard="0"
     inkscape:deskcolor="#d1d1d1"
     inkscape:document-units="mm"
     showgrid="false"
     inkscape:zoom="0.67348485"
     inkscape:cx="376.40045"
     inkscape:cy="538.98763"
     inkscape:window-width="1250"
     inkscape:window-height="906"
     inkscape:window-x="1226"
     inkscape:window-y="265"
     inkscape:window-maximized="0"
     inkscape:current-layer="layer1" /><defs
     id="defs2"><style
       id="style344">.cls-1{fill:#e24329;}.cls-2{fill:#fc6d26;}.cls-3{fill:#fca326;}</style><style
       id="style433">
      .cls-1 {
        fill: #e25444;
      }

      .cls-1, .cls-2, .cls-3 {
        fill-rule: evenodd;
      }

      .cls-2 {
        fill: #7b1d13;
      }

      .cls-3 {
        fill: #58150d;
      }
    </style><path
       d="M 27.791,115.217 1.541,69.749 a 11.499,11.499 0 0 1 0,-11.499 l 26.25,-45.467 a 11.499,11.499 0 0 1 9.959,-5.75 h 52.5 a 11.5,11.5 0 0 1 9.96,5.75 l 26.25,45.467 a 11.499,11.499 0 0 1 0,11.5 l -26.25,45.466 a 11.499,11.499 0 0 1 -9.96,5.75 h -52.5 a 11.499,11.499 0 0 1 -9.959,-5.75 z"
       id="b" /></defs><g
     inkscape:label="Layer 1"
     inkscape:groupmode="layer"
     id="layer1"
     transform="translate(-5.467857,-5.738096)"><g
       id="g706"><path
         fill="#f05133"
         d="M 88.304634,18.167061 77.689818,7.5527709 c -0.611187,-0.611452 -1.602581,-0.611452 -2.214298,0 l -2.203979,2.204508 2.795852,2.7958521 c 0.649817,-0.219604 1.394883,-0.07223 1.912673,0.445823 0.520965,0.521229 0.667015,1.272646 0.441854,1.924844 l 2.695045,2.694781 c 0.652198,-0.224895 1.404144,-0.07938 1.924844,0.442119 0.727604,0.727604 0.727604,1.906588 0,2.634721 -0.728134,0.727869 -1.907117,0.727869 -2.635515,0 -0.547157,-0.547688 -0.682624,-1.352021 -0.405077,-2.026179 l -2.513541,-2.513277 v 6.613789 c 0.177271,0.08784 0.344753,0.204788 0.49239,0.352425 0.727604,0.727604 0.727604,1.906588 0,2.634986 -0.727604,0.727339 -1.907381,0.727339 -2.634456,0 -0.727604,-0.728663 -0.727604,-1.907646 0,-2.634986 0.179916,-0.179652 0.388144,-0.315648 0.610394,-0.406664 v -6.675438 c -0.22225,-0.09102 -0.429948,-0.225689 -0.610394,-0.406664 -0.551127,-0.550863 -0.683684,-1.359959 -0.401109,-2.036763 l -2.756164,-2.756694 -7.278688,7.277894 c -0.611452,0.611981 -0.611452,1.603375 0,2.214827 l 10.615348,10.614554 c 0.611188,0.611452 1.602317,0.611452 2.214298,0 L 88.304634,20.381888 c 0.61145,-0.611452 0.61145,-1.603375 0,-2.214827 z"
         id="path79"
         style="stroke-width:0.264583" /><path
         d="m 17.874996,7.9032889 c -6.850808,0 -12.407139,5.3892601 -12.407139,12.0363631 0,5.318065 3.554648,9.829669 8.485453,11.421504 0.619321,0.111453 0.819902,-0.261967 0.819902,-0.578771 v -2.240776 c -3.451252,0.728214 -4.169831,-1.420293 -4.169831,-1.420293 -0.564526,-1.391177 -1.378228,-1.76129 -1.378228,-1.76129 -1.125947,-0.747278 0.08582,-0.731237 0.08582,-0.731237 1.245884,0.08414 1.901392,1.240753 1.901392,1.240753 1.106307,1.83957 2.902239,1.307954 3.610476,1.000022 0.110631,-0.777343 0.432184,-1.308957 0.787857,-1.608858 -2.75542,-0.305935 -5.652486,-1.338031 -5.652486,-5.948955 0,-1.314982 0.484911,-2.38821 1.277936,-3.230747 -0.128214,-0.304036 -0.553152,-1.528637 0.120985,-3.185643 0,0 1.0422,-0.322993 3.412995,1.233734 0.989472,-0.266877 2.050281,-0.400211 3.104887,-0.405253 1.054607,0.0033 2.116454,0.138376 3.107992,0.405253 2.368727,-1.556727 3.408859,-1.233734 3.408859,-1.233734 0.675156,1.657988 0.250214,2.882698 0.122,3.185643 0.796124,0.842537 1.276903,1.916758 1.276903,3.230747 0,4.62295 -2.902238,5.641012 -5.664896,5.938948 0.444591,0.373028 0.850923,1.105332 0.850923,2.228716 v 3.30297 c 0,0.319958 0.198515,0.696095 0.828178,0.577744 4.926667,-1.593809 8.477177,-6.104433 8.477177,-11.420477 0,-6.647103 -5.555295,-12.0363631 -12.407141,-12.0363631 z"
         id="path286"
         style="stroke-width:1.01836" /><g
         id="LOGO"
         transform="matrix(0.12753077,0,0,0.12866528,23.501297,-4.4119714)"><path
           class="cls-1"
           d="m 282.83,170.73 -0.27,-0.69 -26.14,-68.22 a 6.81,6.81 0 0 0 -2.69,-3.24 7,7 0 0 0 -8,0.43 7,7 0 0 0 -2.32,3.52 l -17.65,54 h -71.47 l -17.65,-54 a 6.86,6.86 0 0 0 -2.32,-3.53 7,7 0 0 0 -8,-0.43 6.87,6.87 0 0 0 -2.69,3.24 L 97.44,170 l -0.26,0.69 a 48.54,48.54 0 0 0 16.1,56.1 l 0.09,0.07 0.24,0.17 39.82,29.82 19.7,14.91 12,9.06 a 8.07,8.07 0 0 0 9.76,0 l 12,-9.06 19.7,-14.91 40.06,-30 0.1,-0.08 a 48.56,48.56 0 0 0 16.08,-56.04 z"
           id="path348" /><path
           class="cls-2"
           d="m 282.83,170.73 -0.27,-0.69 a 88.3,88.3 0 0 0 -35.15,15.8 L 190,229.25 c 19.55,14.79 36.57,27.64 36.57,27.64 l 40.06,-30 0.1,-0.08 a 48.56,48.56 0 0 0 16.1,-56.08 z"
           id="path350" /><path
           class="cls-3"
           d="m 153.43,256.89 19.7,14.91 12,9.06 a 8.07,8.07 0 0 0 9.76,0 l 12,-9.06 19.7,-14.91 c 0,0 -17.04,-12.89 -36.59,-27.64 -19.55,14.75 -36.57,27.64 -36.57,27.64 z"
           id="path352" /><path
           class="cls-2"
           d="M 132.58,185.84 A 88.19,88.19 0 0 0 97.44,170 l -0.26,0.69 a 48.54,48.54 0 0 0 16.1,56.1 l 0.09,0.07 0.24,0.17 39.82,29.82 c 0,0 17,-12.85 36.57,-27.64 z"
           id="path354" /></g><g
         id="g481"
         transform="matrix(0.06220237,0,0,0.05342262,92.880356,5.1809529)"><path
           class="cls-1"
           d="m 378,99 -83,158 83,158 34,-19 V 118 Z"
           id="path437" /><path
           class="cls-2"
           d="M 378,99 212,118 127.5,257 212,396 378,415 Z"
           id="path439" /><path
           class="cls-3"
           d="M 43,99 16,111 V 403 L 43,415 212,257 Z"
           id="path441" /><path
           class="cls-1"
           d="m 42.637,98.667 169.587,47.111 V 372.444 L 42.637,415.111 Z"
           id="path443" /><path
           class="cls-3"
           d="m 212.313,170.667 -72.008,-11.556 72.008,-81.778 71.83,81.778 z"
           id="path445" /><path
           class="cls-3"
           d="m 284.143,159.111 -71.919,11.733 -71.919,-11.733 V 77.333"
           id="path447" /><path
           class="cls-3"
           d="m 212.313,342.222 -72.008,13.334 72.008,70.222 71.83,-70.222 z"
           id="path449" /><path
           class="cls-2"
           d="m 212,16 -72,38 v 105 l 72.224,-20.333 z"
           id="path451" /><path
           class="cls-2"
           d="m 212.224,196.444 -71.919,7.823 v 104.838 l 71.919,8.228 z"
           id="path453" /><path
           class="cls-2"
           d="M 212.224,373.333 140.305,355.3 V 458.363 L 212.224,496 Z"
           id="path455" /><path
           class="cls-1"
           d="m 284.143,355.3 -71.919,18.038 V 496 l 71.919,-37.637 z"
           id="path457" /><path
           class="cls-1"
           d="m 212.224,196.444 71.919,7.823 v 104.838 l -71.919,8.228 z"
           id="path459" /><path
           class="cls-1"
           d="m 212,16 72,38 v 105 l -72,-20 z"
           id="path461" /></g><g
         id="g583"
         transform="matrix(0.20423993,0,0,0.21790562,123.68704,6.5803506)"><g
           transform="translate(0,-7.034)"
           id="g549"><linearGradient
             y2="120.789"
             x2="64"
             y1="7.0339999"
             x1="64"
             gradientUnits="userSpaceOnUse"
             id="a"><stop
               offset="0"
               stop-color="#4387fd"
               id="stop542" /><stop
               offset="1"
               stop-color="#4683ea"
               id="stop544" /></linearGradient><path
             d="M 27.79,115.217 1.54,69.749 a 11.499,11.499 0 0 1 0,-11.499 L 27.79,12.783 a 11.5,11.5 0 0 1 9.96,-5.75 h 52.5 a 11.5,11.5 0 0 1 9.959,5.75 l 26.25,45.467 a 11.499,11.499 0 0 1 0,11.5 l -26.25,45.466 a 11.5,11.5 0 0 1 -9.959,5.75 h -52.5 a 11.499,11.499 0 0 1 -9.96,-5.75 z"
             fill="url(#a)"
             id="path547"
             style="fill:url(#a)" /></g><g
           transform="translate(0,-7.034)"
           id="g559"><defs
             id="defs552"><path
               d="M 27.791,115.217 1.541,69.749 a 11.499,11.499 0 0 1 0,-11.499 l 26.25,-45.467 a 11.499,11.499 0 0 1 9.959,-5.75 h 52.5 a 11.5,11.5 0 0 1 9.96,5.75 l 26.25,45.467 a 11.499,11.499 0 0 1 0,11.5 l -26.25,45.466 a 11.499,11.499 0 0 1 -9.96,5.75 h -52.5 a 11.499,11.499 0 0 1 -9.959,-5.75 z"
               id="path575" /></defs><clipPath
             id="c"><use
               height="100%"
               width="100%"
               xlink:href="#b"
               overflow="visible"
               id="use554" /></clipPath><path
             clip-path="url(#c)"
             opacity="0.07"
             d="m 49.313,53.875 -7.01,6.99 5.957,5.958 -5.898,10.476 44.635,44.636 10.816,0.002 L 118.936,84 85.489,50.55 Z"
             id="path557" /></g><path
           d="M 84.7,43.236 H 43.264 c -0.667,0 -1.212,0.546 -1.212,1.214 v 8.566 c 0,0.666 0.546,1.212 1.212,1.212 H 84.7 c 0.667,0 1.213,-0.546 1.213,-1.212 v -8.568 c 0,-0.666 -0.545,-1.213 -1.212,-1.213 m -6.416,7.976 a 2.484,2.484 0 0 1 -2.477,-2.48 2.475,2.475 0 0 1 2.477,-2.477 c 1.37,0 2.48,1.103 2.48,2.477 a 2.48,2.48 0 0 1 -2.48,2.48 m 6.415,8.491 -41.436,0.002 c -0.667,0 -1.212,0.546 -1.212,1.214 v 8.565 c 0,0.666 0.546,1.213 1.212,1.213 H 84.7 c 0.667,0 1.213,-0.547 1.213,-1.213 v -8.567 c 0,-0.666 -0.545,-1.214 -1.212,-1.214 m -6.416,7.976 a 2.483,2.483 0 0 1 -2.477,-2.48 2.475,2.475 0 0 1 2.477,-2.477 2.48,2.48 0 1 1 0,4.956"
           fill="#ffffff"
           id="path561" /></g><g
         style="fill:#000000"
         id="g668"
         transform="matrix(1.0414114,0,0,1.0768849,154.45231,5.738096)"><path
           d="m 8.963,12 c 0,-1.584 1.284,-2.855 2.855,-2.855 1.572,0 2.856,1.284 2.856,2.855 0,1.572 -1.284,2.856 -2.856,2.856 -1.57,0 -2.855,-1.284 -2.855,-2.856 z M 11.818,0 C 6.215,0 1.522,3.84 0.19,9.025 0.18,9.061 0.18,9.095 0.18,9.145 c 0,0.313 0.252,0.576 0.575,0.576 H 5.59 c 0.23,0 0.433,-0.13 0.517,-0.333 0.997,-2.16 3.18,-3.672 5.712,-3.672 3.466,0 6.286,2.82 6.286,6.287 0,3.47 -2.82,6.29 -6.29,6.29 -2.53,0 -4.714,-1.5 -5.71,-3.673 C 6.008,14.43 5.815,14.284 5.588,14.284 H 0.755 c -0.312,0 -0.575,0.253 -0.575,0.576 0,0.037 0.014,0.072 0.014,0.12 1.32,5.18 6.02,9.02 11.624,9.02 6.624,0 12,-5.375 12,-12 0,-6.623 -5.376,-12 -12,-12 z"
           id="path659" /></g></g></g></svg>
